<?xml version="1.0" encoding="UTF-8" standalone="no"?>
<!-- Created with Inkscape (http://www.inkscape.org/) -->

<svg
   xmlns:dc="http://purl.org/dc/elements/1.1/"
   xmlns:cc="http://creativecommons.org/ns#"
   xmlns:rdf="http://www.w3.org/1999/02/22-rdf-syntax-ns#"
   xmlns:svg="http://www.w3.org/2000/svg"
   xmlns="http://www.w3.org/2000/svg"
   xmlns:xlink="http://www.w3.org/1999/xlink"
   xmlns:sodipodi="http://sodipodi.sourceforge.net/DTD/sodipodi-0.dtd"
   xmlns:inkscape="http://www.inkscape.org/namespaces/inkscape"
   width="210mm"
   height="297mm"
   viewBox="0 0 744.09448819 1052.3622047"
   id="svg2"
   version="1.1"
   inkscape:version="0.91 r13725"
   sodipodi:docname="blue-flame.svg">
  <defs
     id="defs4">
    <linearGradient
       inkscape:collect="always"
       id="linearGradient4249">
      <stop
         style="stop-color:#2ad4ff;stop-opacity:1;"
         offset="0"
         id="stop4251" />
      <stop
         id="stop4257"
         offset="0.00614604"
         style="stop-color:#004455;stop-opacity:1" />
      <stop
         style="stop-color:#006680;stop-opacity:1"
         offset="0.30603448"
         id="stop4259" />
      <stop
         id="stop4261"
         offset="0.89655167"
         style="stop-color:#2ad4ff;stop-opacity:0.16862745;" />
      <stop
         style="stop-color:#2ad4ff;stop-opacity:0;"
         offset="1"
         id="stop4253" />
    </linearGradient>
    <inkscape:path-effect
       fuse_tolerance="0"
       vertical_pattern="false"
       prop_units="false"
       tang_offset="0"
       normal_offset="0"
       spacing="0"
       scale_y_rel="false"
       prop_scale="1"
       copytype="single_stretched"
       pattern="m -21.216943,549.97006 c 247.376363,1.00608 497.837403,200.23503 497.837403,200.23503 3.1811,1.27949 3.1811,3.33962 0,4.61911 0,0 -259.19182,202.74061 -497.837403,200.23501 -3.82681,-0.04 -7.65633,-0.012 -11.48433,0 -243.010957,0.7498 -497.837357,-200.23501 -497.837357,-200.23501 -3.18116,-1.27949 -3.18115,-3.33962 0,-4.6191 0,0 219.90326,-199.22896 497.837357,-200.23504 3.82795,-0.0138 7.65641,-0.0156 11.48433,0 z"
       is_visible="true"
       id="path-effect4242"
       effect="skeletal" />
    <inkscape:path-effect
       is_visible="true"
       id="path-effect4240"
       effect="spiro" />
    <inkscape:path-effect
       effect="skeletal"
       id="path-effect4231"
       is_visible="true"
       pattern="m -21.216943,-452.10126 c 247.376363,1.00608 497.837403,200.23503 497.837403,200.23503 3.1811,1.27949 3.1811,3.33962 0,4.61911 0,0 -259.19182,202.740571 -497.837403,200.235031 -3.82681,-0.0402 -7.65633,-0.0118 -11.48433,0 -243.010957,0.74973 -497.837357,-200.235031 -497.837357,-200.235031 -3.18116,-1.27949 -3.18115,-3.33962 0,-4.6191 0,0 219.90326,-199.22896 497.837357,-200.23504 3.82795,-0.0138 7.65641,-0.0156 11.48433,0 z"
       copytype="single_stretched"
       prop_scale="1"
       scale_y_rel="false"
       spacing="0"
       normal_offset="0"
       tang_offset="0"
       prop_units="false"
       vertical_pattern="false"
       fuse_tolerance="0" />
    <inkscape:path-effect
       effect="spiro"
       id="path-effect4229"
       is_visible="true" />
    <inkscape:path-effect
       effect="skeletal"
       id="path-effect4165"
       is_visible="true"
       pattern="m 512.1436,0.4470791 c 247.37636,1.00608 497.8374,200.2350309 497.8374,200.2350309 3.1811,1.27949 3.1811,3.33962 0,4.61911 0,0 -259.19182,202.74057 -497.8374,200.23503 -3.82681,-0.0402 -7.65633,-0.0118 -11.48433,0 C 257.64831,406.28598 2.82191,205.30122 2.82191,205.30122 c -3.18115998,-1.27949 -3.18114998,-3.33962 0,-4.6191 0,0 219.90326,-199.2289609 497.83736,-200.2350409 3.82795,-0.0138 7.65641,-0.0156 11.48433,0 z"
       copytype="single_stretched"
       prop_scale="1"
       scale_y_rel="false"
       spacing="0"
       normal_offset="0"
       tang_offset="0"
       prop_units="false"
       vertical_pattern="false"
       fuse_tolerance="0" />
    <inkscape:path-effect
       effect="spiro"
       id="path-effect4163"
       is_visible="true" />
    <linearGradient
       inkscape:collect="always"
       xlink:href="#linearGradient4249"
       id="linearGradient4255"
       x1="-1577.1428"
       y1="778.07648"
       x2="-1577.1428"
       y2="-4524.7808"
       gradientUnits="userSpaceOnUse"
       gradientTransform="matrix(0.89518546,0,0,0.89518546,1617.113,2050.509)" />
  </defs>
  <sodipodi:namedview
     id="base"
     pagecolor="#ffffff"
     bordercolor="#666666"
     borderopacity="1.0"
     inkscape:pageopacity="0.0"
     inkscape:pageshadow="2"
     inkscape:zoom="0.030935922"
     inkscape:cx="-9897.1086"
     inkscape:cy="-43.445046"
     inkscape:document-units="px"
     inkscape:current-layer="layer1"
     showgrid="false"
     showborder="false"
     inkscape:window-width="1366"
     inkscape:window-height="705"
     inkscape:window-x="0"
     inkscape:window-y="30"
     inkscape:window-maximized="1" />
  <metadata
     id="metadata7">
    <rdf:RDF>
      <cc:Work
         rdf:about="">
        <dc:format>image/svg+xml</dc:format>
        <dc:type
           rdf:resource="http://purl.org/dc/dcmitype/StillImage" />
        <dc:title />
      </cc:Work>
    </rdf:RDF>
  </metadata>
  <g
     inkscape:label="Layer 1"
     inkscape:groupmode="layer"
     id="layer1">
    <path
       style="fill:url(#linearGradient4255);fill-opacity:1;fill-rule:evenodd;stroke:none;stroke-width:1px;stroke-linecap:butt;stroke-linejoin:miter;stroke-opacity:1"
       d="m 914.73545,-1693.8297 c -61.92325,0.1689 -141.05491,6.5218 -231.06247,28.6046 -117.47339,28.7096 -259.63501,85.9278 -396.89415,194.0258 -93.2367,73.6609 -182.74038,169.6102 -256.321045,288.7447 -66.471364,107.3401 -119.505733,233.03911 -148.482535,373.93076 -26.82225,131.94147 -31.7959,273.05771 -10.00351,416.37028 12.62265,83.9505 34.429907,168.16379 65.998082,250.79998 -15.549909,-9.04308 -31.131146,-17.40089 -46.671122,-25.07397 -115.87701,-56.94105 -226.37055,-74.61505 -313.67778,-75.47067 -93.12776,-1.02606 -165.69759,16.84748 -210.40044,31.46577 -45.84848,14.99284 -68.38422,27.41684 -68.38422,27.41684 -12.64728,3.73938 -11.17516,7.42413 0.85613,8.5023 0,0 24.55898,6.59823 66.3464,23.39674 41.59886,16.72278 99.88857,44.39815 160.41625,89.521229 54.89692,41.066001 111.38944,96.642786 152.34912,164.701681 27.60617,45.26612 49.27198,96.11059 62.58966,149.58969 11.59426,47.21226 16.64937,96.20056 13.16307,142.19447 -2.90945,42.03854 -12.19322,84.38869 -26.6434,123.74856 -13.7172,36.67905 -31.96734,71.13009 -53.44445,99.20534 -23.76539,36.16943 -64.41414,76.07778 -116.61866,135.55999 -49.18917,53.04566 -114.70755,121.15887 -182.66445,208.13444 -1.71796,2.19879 -3.43851,4.40927 -5.1623,6.63228 -9.82224,12.59487 -19.49338,25.43393 -28.99659,38.51919 -69.45498,95.6349 -127.72,205.0744 -169.89937,325.7108 -49.92244,139.9838 -67.95942,295.1853 -49.9095,452.1921 23.27437,165.7491 84.84652,305.2334 163.93248,416.163 85.5278,120.3153 183.53238,208.8988 277.98858,274.9346 205.155,145.0591 404.334473,204.8 540.49629,229.5636 72.81519,13.2429 129.35511,17.8466 166.4369,19.2502 -7.91648,7.05 -12.37307,10.8225 -12.37307,10.8225 -14.43281,10.4263 -13.44846,14.2258 4.06155,7.5175 0,0 110.38674,-21.4647 289.87661,-101.9627 178.02275,-79.8401 429.41082,-225.3911 665.27939,-482.0325 108.5688,-117.2232 215.9555,-263.3137 297.6702,-443.6731 75.5216,-166.172 122.3569,-362.766 114.2116,-579.6766 -5.0075,-102.3711 -22.5552,-203.49278 -51.9684,-300.88793 -28.9526,-95.81672 -67.4635,-186.9448 -113.8736,-272.08392 -81.7697,-149.0849 -183.0221,-281.42078 -296.4033,-395.42829 -15.5154,-15.60129 -31.2176,-30.87549 -47.0816,-45.82732 -2.8038,-2.65333 -5.6035,-5.29287 -8.4009,-7.9198 -109.964,-103.273864 -219.49011,-188.202792 -305.08609,-259.07435 -46.28826,-38.59099 -87.72008,-73.65693 -123.94563,-108.18262 -36.75372,-35.1456 -68.9633,-68.23614 -95.3035,-101.13564 -44.23809,-53.65811 -80.49588,-116.61455 -107.34079,-182.56696 -28.50969,-70.72036 -46.29773,-145.26463 -52.56341,-218.68309 -7.16345,-80.14288 -0.22577,-162.27694 17.08372,-239.86968 19.79049,-87.8799 52.8018,-169.6111 94.39121,-241.5096 61.87656,-107.8306 144.85533,-194.0625 223.73366,-257.3017 86.80414,-69.4295 169.93284,-112.554 227.90909,-138.4396 58.57404,-26.1529 92.55854,-36.5952 92.55854,-36.5952 16.8998,-3.1634 18.8416,-7.0877 -0.4644,-8.5315 0,0 -35.2664,-8.6499 -102.90005,-13.2211 -18.58151,-1.2559 -40.17691,-2.1373 -64.4078,-2.0711 z M 340.10914,736.62557 c 10.13422,10.77302 20.28508,21.07741 30.37328,30.90189 43.87725,42.96217 86.25103,78.71399 120.05619,110.84875 0.86877,0.82592 1.73146,1.64973 2.58949,2.47339 4.66312,4.50405 9.25156,9.03147 13.72911,13.60891 32.42881,33.15349 61.87906,66.74398 85.22129,101.84888 13.1629,19.57301 24.79781,39.11721 34.04704,58.69811 9.30088,19.6334 16.88212,39.4991 21.91638,59.2494 11.60599,41.4444 11.55729,90.9055 4.54458,140.4611 -7.79787,53.7695 -27.21327,109.0381 -49.89915,160.6547 -49.86013,112.1059 -113.90689,198.805 -166.9844,259.2423 -52.40282,59.6692 -89.67046,91.0222 -89.67046,91.0222 -6.16362,4.4528 -5.74244,6.0743 1.73541,3.2094 0,0 47.14109,-9.1648 123.7942,-43.5425 76.0265,-34.0965 183.38492,-96.2566 284.11509,-205.8579 46.36538,-50.0614 92.22476,-112.4507 127.12181,-189.4752 28.72465,-63.2032 47.71491,-136.7192 49.07198,-217.4846 13.49523,32.472 24.72947,65.0904 33.01037,97.5778 27.1766,97.0458 27.06305,212.863 10.64209,328.9017 -18.25926,125.9057 -63.72566,255.3234 -116.84679,376.1885 -116.75194,262.506 -266.72052,465.5203 -391.00601,607.0396 -71.46014,81.3689 -130.73252,140.0708 -167.91736,175.0596 -26.51557,-22.1588 -73.38148,-63.2439 -130.88891,-121.9241 -92.058092,-93.9355 -200.713371,-225.7671 -289.36466,-395.6771 -40.13018,-78.1234 -74.40065,-159.6511 -88.91984,-236.1482 -12.88297,-70.3944 -15.87433,-137.1321 -1.88875,-187.6507 9.40956,-46.6067 33.86218,-98.4603 61.31035,-153.5889 25.58011,-50.0881 60.211873,-101.6112 98.413377,-155.71 5.286426,-7.4856 10.78403,-14.9417 16.399432,-22.4202 1.050324,-1.3842 2.111216,-2.7754 3.182476,-4.1713 41.6701674,-54.3146 98.58364,-121.3075 158.906965,-204.919 64.38406,-85.5392 127.07918,-193.2585 174.31113,-322.13857 17.91902,-52.016 30.74918,-104.30671 38.89429,-156.27796 z"
       id="path4227"
       inkscape:connector-curvature="0" />
  </g>
</svg>
