<?xml version="1.0" encoding="UTF-8" standalone="no"?>
<!-- Created with Inkscape (http://www.inkscape.org/) -->

<svg
   xmlns:dc="http://purl.org/dc/elements/1.1/"
   xmlns:cc="http://creativecommons.org/ns#"
   xmlns:rdf="http://www.w3.org/1999/02/22-rdf-syntax-ns#"
   xmlns:svg="http://www.w3.org/2000/svg"
   xmlns="http://www.w3.org/2000/svg"
   xmlns:sodipodi="http://sodipodi.sourceforge.net/DTD/sodipodi-0.dtd"
   xmlns:inkscape="http://www.inkscape.org/namespaces/inkscape"
   width="210mm"
   height="297mm"
   viewBox="0 0 210 297"
   version="1.1"
   id="svg891"
   sodipodi:docname="digi.svg"
   inkscape:version="0.92.2 (unknown)">
  <defs
     id="defs885" />
  <sodipodi:namedview
     id="base"
     pagecolor="#ffffff"
     bordercolor="#666666"
     borderopacity="1.0"
     inkscape:pageopacity="0.0"
     inkscape:pageshadow="2"
     inkscape:zoom="0.35"
     inkscape:cx="56.303277"
     inkscape:cy="520.6131"
     inkscape:document-units="mm"
     inkscape:current-layer="layer1"
     showgrid="false"
     inkscape:snap-nodes="false"
     showguides="true"
     inkscape:window-width="1366"
     inkscape:window-height="705"
     inkscape:window-x="0"
     inkscape:window-y="30"
     inkscape:window-maximized="1"
     inkscape:guide-bbox="true">
    <sodipodi:guide
       position="-54.428572,429.38095"
       orientation="0,1"
       id="guide1503"
       inkscape:locked="false" />
  </sodipodi:namedview>
  <metadata
     id="metadata888">
    <rdf:RDF>
      <cc:Work
         rdf:about="">
        <dc:format>image/svg+xml</dc:format>
        <dc:type
           rdf:resource="http://purl.org/dc/dcmitype/StillImage" />
      </cc:Work>
    </rdf:RDF>
  </metadata>
  <g
     inkscape:label="Layer 1"
     inkscape:groupmode="layer"
     id="layer1">
    <g
       id="g1475"
       transform="matrix(1.2105259,0,0,1.2105259,10.515977,7.6065464)">
      <path
         id="path1438"
         d="M 81.750527,30.211562 A 86.178571,86.178571 0 0 0 -4.4281926,116.39028 86.178571,86.178571 0 0 0 81.750527,202.569 86.178571,86.178571 0 0 0 156.25709,159.48325 l -3.36724,-6.36963 A 80.130951,80.130951 0 0 1 81.750527,196.5213 80.130951,80.130951 0 0 1 1.6195003,116.39028 80.130951,80.130951 0 0 1 81.750527,36.259255 80.130951,80.130951 0 0 1 156.59557,87.835952 l 3.93671,-6.234245 A 86.178571,86.178571 0 0 0 81.750527,30.211562 Z"
         style="opacity:1;fill:#ef4b00;fill-opacity:1;stroke-width:0.26458332"
         inkscape:connector-curvature="0" />
      <path
         inkscape:connector-curvature="0"
         style="opacity:1;fill:#009f3f;fill-opacity:1;stroke-width:0.2317608"
         d="M 82.301085,192.46053 A 75.487809,75.487809 0 0 0 156.10356,115.32391 75.487809,75.487809 0 0 0 78.966916,41.521465 75.487809,75.487809 0 0 0 14.552546,80.694354 l 3.072019,5.512962 A 70.190417,70.190417 0 0 1 79.083905,46.817623 70.190417,70.190417 0 0 1 150.8074,115.4409 70.190417,70.190417 0 0 1 82.184096,187.16435 70.190417,70.190417 0 0 1 15.642111,143.44479 l -3.326911,5.5357 a 75.487809,75.487809 0 0 0 69.985885,43.48004 z"
         id="path1450" />
      <path
         id="path1452"
         d="M 80.835657,52.163615 A 63.72797,63.72797 0 0 0 15.615865,114.36419 63.72797,63.72797 0 0 0 77.816448,179.584 63.72797,63.72797 0 0 0 133.65238,149.03674 l -2.37775,-4.76792 A 59.25583,59.25583 0 0 1 77.922388,175.11307 59.25583,59.25583 0 0 1 20.086807,114.47014 59.25583,59.25583 0 0 1 80.729717,56.634553 59.25583,59.25583 0 0 1 135.15767,96.075261 l 3.01954,-4.539891 A 63.72797,63.72797 0 0 0 80.835657,52.163615 Z"
         style="opacity:1;fill:#0d4b9e;fill-opacity:1;stroke-width:0.19565603"
         inkscape:connector-curvature="0" />
    </g>
    <g
       id="g1552"
       transform="translate(12.095238,300.1131)">
      <path
         inkscape:connector-curvature="0"
         id="circle1500"
         d="M 103.5895,92.301468 A 48.364789,56.561236 0 0 0 71.275,106.86878 47.504409,55.07278 0 0 1 94.527481,99.743772 47.504409,55.07278 0 0 1 142.03213,154.81666 47.504409,55.07278 0 0 1 117.37605,203.03294 48.364789,56.561236 0 0 0 151.95417,148.86264 48.364789,56.561236 0 0 0 103.5895,92.301468 Z"
         style="opacity:1;fill:#0000ff;fill-opacity:1;stroke-width:0.21939421" />
      <path
         inkscape:connector-curvature="0"
         id="path1508"
         d="m 105.9181,180.80138 a 20.312498,11.948527 0 0 0 -20.312527,11.94857 20.312498,11.948527 0 0 0 20.312527,11.94858 20.312498,11.948527 0 0 0 20.31251,-11.94858 20.312498,11.948527 0 0 0 -20.31251,-11.94857 z m 2.09105,4.77931 a 17.026652,7.4678294 0 0 1 17.02649,7.46786 17.026652,7.4678294 0 0 1 -17.02649,7.46787 17.026652,7.4678294 0 0 1 -17.026778,-7.46787 17.026652,7.4678294 0 0 1 17.026778,-7.46786 z"
         style="opacity:1;fill:#0000ff;fill-opacity:1;stroke-width:0.14785548" />
      <path
         inkscape:connector-curvature="0"
         id="path1514"
         d="m 90.793403,95.647308 a 19.163793,51.628884 0 0 0 -1.420209,0.15013 16.76832,51.628884 0 0 1 15.792956,51.478792 16.76832,51.628884 0 0 1 -15.515833,51.47442 19.163793,51.628884 0 0 0 1.143086,0.15449 19.163793,51.628884 0 0 0 19.163717,-51.62891 19.163793,51.628884 0 0 0 -19.163717,-51.628922 z"
         style="opacity:1;fill:#0000ff;fill-opacity:1;stroke-width:0.12661764" />
    </g>
    <g
       id="g1574"
       transform="matrix(0.86230387,0,0,0.86230387,14.458094,12.402611)"
       style="fill:#8a2317;fill-opacity:1">
      <g
         transform="translate(1.5e-6,14.352261)"
         id="g1564"
         style="fill:#8a2317;fill-opacity:1">
        <path
           style="opacity:1;fill:#8a2317;fill-opacity:1;stroke-width:0.26458332"
           d="M 104.7119,99.557668 A 76.973617,76.973617 0 0 0 43.990547,129.27887 l 18.576126,-5.26172 a 67.351912,67.351912 0 0 1 42.145227,-14.83783 67.351912,67.351912 0 0 1 43.96941,16.37885 l 17.32814,4.57491 A 76.973617,76.973617 0 0 0 104.7119,99.557668 Z"
           id="path1547"
           inkscape:connector-curvature="0" />
        <path
           inkscape:connector-curvature="0"
           id="path1554"
           d="m 104.80471,119.61643 a 52.175851,52.175851 0 0 0 -41.159401,20.14624 l 12.591654,-3.56661 a 45.653868,45.653868 0 0 1 28.567747,-10.05769 45.653868,45.653868 0 0 1 29.80426,11.10225 l 11.74572,3.10106 a 52.175851,52.175851 0 0 0 -41.54998,-20.72525 z"
           style="opacity:1;fill:#8a2317;fill-opacity:1;stroke-width:0.17934534" />
        <path
           style="opacity:1;fill:#8a2317;fill-opacity:1;stroke-width:0.14328311"
           d="m 104.84398,138.63356 a 41.684489,41.684489 0 0 0 -32.883195,16.09529 l 10.059762,-2.84945 a 36.473926,36.473926 0 0 1 22.823433,-8.03532 36.473926,36.473926 0 0 1 23.81131,8.86985 l 9.38392,2.4775 a 41.684489,41.684489 0 0 0 -33.19523,-16.55787 z"
           id="path1556"
           inkscape:connector-curvature="0" />
        <path
           inkscape:connector-curvature="0"
           id="path1558"
           d="m 104.87789,155.77904 a 32.623766,32.623766 0 0 0 -25.735557,12.59674 l 7.873128,-2.23008 a 28.545794,28.545794 0 0 1 17.862429,-6.28873 28.545794,28.545794 0 0 1 18.63558,6.94186 l 7.34419,1.93898 a 32.623766,32.623766 0 0 0 -25.97977,-12.95877 z"
           style="opacity:1;fill:#8a2317;fill-opacity:1;stroke-width:0.11213847" />
      </g>
      <circle
         r="7.5595245"
         cy="194.19048"
         cx="105.07738"
         id="path1566"
         style="opacity:1;fill:#8a2317;fill-opacity:1;stroke-width:0.16536458" />
    </g>
    <flowRoot
       xml:space="preserve"
       id="flowRoot831"
       style="fill:black;fill-opacity:1;stroke:none;font-family:sans-serif;font-style:normal;font-weight:normal;font-size:40px;line-height:1.25;letter-spacing:0px;word-spacing:0px"><flowRegion
         id="flowRegion833"><rect
           id="rect835"
           width="517.14288"
           height="137.14285"
           x="-1022.8571"
           y="742.51971" /></flowRegion><flowPara
         id="flowPara837"></flowPara></flowRoot>  </g>
</svg>
